<svg xmlns="http://www.w3.org/2000/svg" viewBox="0 0 32 32" role="img" aria-label="Jocurile Brumix">
  <defs>
    <linearGradient id="sky" x1="0%" y1="0%" x2="100%" y2="100%">
      <stop offset="0%" stop-color="#7ec8ff"/>
      <stop offset="55%" stop-color="#e8f4ff"/>
      <stop offset="100%" stop-color="#f0e8ff"/>
    </linearGradient>
    <linearGradient id="flame" x1="50%" y1="0%" x2="50%" y2="100%">
      <stop offset="0%" stop-color="#ffd666"/>
      <stop offset="100%" stop-color="#e85d8a"/>
    </linearGradient>
  </defs>
  <rect width="32" height="32" rx="8" fill="url(#sky)"/>
  <circle cx="6" cy="7" r="1" fill="#fff" opacity="0.9"/>
  <circle cx="26" cy="10" r="0.8" fill="#fff" opacity="0.75"/>
  <circle cx="22" cy="5" r="0.6" fill="#fff" opacity="0.6"/>
  <path fill="#1e3a5f" d="M16 6c-1.2 2.8-2 5.2-2 7.5 0 1 .3 1.8.8 2.5l-.3 3.2c-.1.9.6 1.6 1.5 1.6h.8c.9 0 1.6-.7 1.5-1.6l-.3-3.2c.5-.7.8-1.5.8-2.5 0-2.3-.8-4.7-2-7.5z"/>
  <path fill="#fff" opacity="0.35" d="M15 10.5c0 2 .5 3.5 1 4.8V18h-1c-.5 0-.9-.4-.9-.9l.2-2.4c-.4-.8-.6-1.6-.6-2.5 0-1.4.4-3 .9-4.2z"/>
  <circle cx="16" cy="11.5" r="2.1" fill="#7ec8ff"/>
  <circle cx="16" cy="11.5" r="1.4" fill="#e8f4ff"/>
  <path fill="#6b4ce6" d="M12.2 18.2 11 22.5c-.2.7.4 1.3 1.1 1.1l2.4-.8-2.3-4.6z"/>
  <path fill="#6b4ce6" d="M19.8 18.2l2.3 4.6 2.4.8c.7.2 1.3-.4 1.1-1.1L19.8 18.2z"/>
  <path fill="url(#flame)" d="M14.5 22.8c0 2.2 1.3 4 3.5 4s3.5-1.8 3.5-4c0-1.4-.8-2.6-1.6-3.5-.5-.6-1.3-.6-1.9 0-.8.9-1.6 2.1-1.6 3.5z"/>
</svg>
